<svg xmlns="http://www.w3.org/2000/svg" xmlns:xlink="http://www.w3.org/1999/xlink" width="1920" height="1080" viewBox="0 0 1920.0001 1080"><defs><filter id="a" x="-.273" width="1.546" y="-.287" height="1.574" color-interpolation-filters="sRGB"><feGaussianBlur stdDeviation=".623"/></filter><filter id="d" x="-.47" width="1.939" y="-.483" height="1.967" color-interpolation-filters="sRGB"><feGaussianBlur stdDeviation=".505"/></filter></defs><g transform="translate(0 27.637)"><path id="b" d="M251.019 155.75l-.847-1.717-1.894-.275 1.37-1.336-.323-1.886 1.694.89 1.694-.89-.324 1.886 1.37 1.336-1.893.275z" transform="translate(56.882 34.353) scale(.7695)" fill="#fff" stroke="#000" stroke-width=".336" stroke-opacity=".981" filter="url(#a)" opacity=".693"/><use xlink:href="#b" width="100%" height="100%" transform="translate(-407.106 111.521)"/><use xlink:href="#b" width="100%" height="100%" transform="translate(-317.3 75.993)"/><use xlink:href="#b" width="100%" height="100%" transform="translate(-230.2 35.772)"/><use xlink:href="#b" width="100%" height="100%" transform="translate(-28.215 -198.834)"/><use xlink:href="#b" width="100%" height="100%" transform="translate(-21.098 -259.832)"/><use xlink:href="#b" width="100%" height="100%" transform="translate(-5.25 -331.487)"/><use xlink:href="#b" width="100%" height="100%" transform="translate(-27.18 -169.18)"/><use xlink:href="#b" width="100%" height="100%" transform="translate(21.864 -103.99)"/><use xlink:href="#b" width="100%" height="100%" transform="translate(-207.519 77.467)"/><use xlink:href="#b" width="100%" height="100%" transform="translate(-218.132 213.237)"/><use xlink:href="#b" width="100%" height="100%" transform="translate(-363.624 239.274)"/><use xlink:href="#b" width="100%" height="100%" transform="translate(-251.595 326.627)"/><use xlink:href="#b" width="100%" height="100%" transform="translate(-192.194 204.373)"/><use xlink:href="#b" width="100%" height="100%" transform="translate(-107.13 234.041)"/><use xlink:href="#b" width="100%" height="100%" transform="translate(-38.223 148.4)"/><use xlink:href="#b" width="100%" height="100%" transform="translate(188.65 85.331)"/><use xlink:href="#b" width="100%" height="100%" transform="translate(322.697 42.268)"/><use xlink:href="#b" width="100%" height="100%" transform="translate(253.341 -127.758)"/><use xlink:href="#b" width="100%" height="100%" transform="translate(302.53 90.207)"/><use xlink:href="#b" width="100%" height="100%" transform="translate(179.716 175.792)"/><use xlink:href="#b" width="100%" height="100%" transform="translate(39.556 336.498)"/><use xlink:href="#b" width="100%" height="100%" transform="translate(-182.807 480.2)"/><use xlink:href="#b" width="100%" height="100%" transform="translate(-179.525 501.307)"/><use xlink:href="#b" width="100%" height="100%" transform="translate(-146.582 585.87)"/><use xlink:href="#b" width="100%" height="100%" transform="translate(83.14 379.527)"/><use xlink:href="#b" width="100%" height="100%" transform="translate(119.712 309.934)"/><use xlink:href="#b" width="100%" height="100%" transform="translate(185.685 249.1)"/><use xlink:href="#b" width="100%" height="100%" transform="translate(233.453 77.956)"/><use xlink:href="#b" width="100%" height="100%" transform="translate(335.42 95.252)"/><use xlink:href="#b" width="100%" height="100%" transform="translate(641.425 -214.462)"/><use xlink:href="#b" width="100%" height="100%" transform="translate(573.288 -191.685)"/><use xlink:href="#b" width="100%" height="100%" transform="translate(457.837 -71.654)"/><use xlink:href="#b" width="100%" height="100%" transform="translate(490.494 49.124)"/><use xlink:href="#b" width="100%" height="100%" transform="translate(-383.86 703.337)"/><use xlink:href="#b" width="100%" height="100%" transform="translate(-358.55 760.24)"/><use xlink:href="#b" width="100%" height="100%" transform="translate(-63.213 694.548)"/><use xlink:href="#b" width="100%" height="100%" transform="translate(451.871 310.461)"/><use xlink:href="#b" width="100%" height="100%" transform="translate(505.322 236.815)"/><use xlink:href="#b" width="100%" height="100%" transform="translate(541.512 238.361)"/><use xlink:href="#b" width="100%" height="100%" transform="translate(761.884 151.14)"/><use id="c" xlink:href="#b" width="100%" height="100%" transform="translate(745.174 70.97) scale(1.296)" fill="#7280dc" stroke="#0000d2" stroke-opacity=".981"/><use xlink:href="#b" width="100%" height="100%" transform="translate(698.29 131.01)"/><use xlink:href="#b" width="100%" height="100%" transform="translate(740.765 276.516)"/><use xlink:href="#b" width="100%" height="100%" transform="translate(661.412 365.88)"/><use xlink:href="#b" width="100%" height="100%" transform="translate(406.638 605.803)"/><use xlink:href="#b" width="100%" height="100%" transform="translate(267.812 666.072)"/><use xlink:href="#b" width="100%" height="100%" transform="translate(664.663 471.4)"/><use xlink:href="#b" width="100%" height="100%" transform="translate(995.363 182.103)"/><use xlink:href="#b" width="100%" height="100%" transform="translate(1162.134 127.904)"/><use xlink:href="#b" width="100%" height="100%" transform="translate(1449.89 -51.029)"/><use xlink:href="#b" width="100%" height="100%" transform="translate(1269.374 55.634)"/><use xlink:href="#b" width="100%" height="100%" transform="translate(1030.47 418.46)"/><use xlink:href="#b" width="100%" height="100%" transform="translate(574.64 869.104)"/><use xlink:href="#b" width="100%" height="100%" transform="translate(572.266 798.772)"/><use xlink:href="#b" width="100%" height="100%" transform="translate(604.276 812.976)"/><use xlink:href="#b" width="100%" height="100%" transform="translate(711.927 844.027)"/><use xlink:href="#b" width="100%" height="100%" transform="translate(1009.374 656.45)"/><use xlink:href="#b" width="100%" height="100%" transform="translate(1133.801 676.068)"/><use xlink:href="#b" width="100%" height="100%" transform="translate(1385.526 501.935)"/><use xlink:href="#b" width="100%" height="100%" transform="translate(1498.821 481.168)"/><use xlink:href="#b" width="100%" height="100%" transform="translate(1408.386 524.018)"/><use xlink:href="#b" width="100%" height="100%" transform="translate(1297.238 519.39)"/><use xlink:href="#b" width="100%" height="100%" transform="translate(1237.666 520.158)"/><use xlink:href="#b" width="100%" height="100%" transform="translate(1068.694 758.36)"/><use xlink:href="#b" width="100%" height="100%" transform="translate(1104.347 634.282)"/><use xlink:href="#b" width="100%" height="100%" transform="translate(1442.687 593.412)"/><use xlink:href="#b" width="100%" height="100%" transform="translate(1608.592 487.027)"/><use xlink:href="#b" width="100%" height="100%" transform="translate(1581.72 473.169)"/><use xlink:href="#b" width="100%" height="100%" transform="translate(1828.918 397.708)"/><use xlink:href="#b" width="100%" height="100%" transform="translate(1852.293 479.91)"/><use xlink:href="#b" width="100%" height="100%" transform="translate(1782.602 507.782)"/><use xlink:href="#b" width="100%" height="100%" transform="translate(1806.78 576.278)"/><use xlink:href="#b" width="100%" height="100%" transform="translate(1840.327 625.795)"/><use xlink:href="#b" width="100%" height="100%" transform="translate(1831.647 797.166)"/><use xlink:href="#b" width="100%" height="100%" transform="translate(1488.79 1028.441)"/><use xlink:href="#b" width="100%" height="100%" transform="translate(1506.372 1052.233)"/><use xlink:href="#b" width="100%" height="100%" transform="translate(1441.082 840.557)"/><use xlink:href="#b" width="100%" height="100%" transform="translate(1562.449 649.625)"/><use xlink:href="#b" width="100%" height="100%" transform="translate(1446.918 656.915)"/><use xlink:href="#b" width="100%" height="100%" transform="translate(1670.424 92.216)"/><use xlink:href="#b" width="100%" height="100%" transform="translate(1618.001 47.967)"/><use xlink:href="#b" width="100%" height="100%" transform="translate(1667.93 85.006)"/><use xlink:href="#b" width="100%" height="100%" transform="translate(1506.077 200.226)"/><use xlink:href="#b" width="100%" height="100%" transform="translate(1429.498 201.623)"/><use xlink:href="#b" width="100%" height="100%" transform="translate(1205.086 458.444)"/><use xlink:href="#b" width="100%" height="100%" transform="translate(1375.236 205.507)"/><use xlink:href="#b" width="100%" height="100%" transform="translate(1395.506 254.64)"/><use xlink:href="#b" width="100%" height="100%" transform="translate(1290.615 109.038)"/><use xlink:href="#b" width="100%" height="100%" transform="translate(1371.704 42.366)"/><use xlink:href="#b" width="100%" height="100%" transform="translate(1448.324 -47.926)"/><use xlink:href="#b" width="100%" height="100%" transform="translate(1316.765 -109.174)"/><use xlink:href="#b" width="100%" height="100%" transform="translate(1275.955 39.022)"/><use xlink:href="#b" width="100%" height="100%" transform="translate(1184.54 89.102)"/><use xlink:href="#b" width="100%" height="100%" transform="translate(844.1 317.859)"/><use xlink:href="#b" width="100%" height="100%" transform="translate(631.597 296.282)"/><use xlink:href="#b" width="100%" height="100%" transform="translate(375.922 545.78)"/><use xlink:href="#b" width="100%" height="100%" transform="translate(149.725 456.136)"/><use xlink:href="#b" width="100%" height="100%" transform="translate(236.66 296.09)"/><use xlink:href="#b" width="100%" height="100%" transform="translate(168.157 148.122)"/><use xlink:href="#b" width="100%" height="100%" transform="translate(257.986 109.172)"/><use xlink:href="#b" width="100%" height="100%" transform="translate(380.426 -35.02)"/><use xlink:href="#b" width="100%" height="100%" transform="translate(313.202 43.043)"/><use xlink:href="#b" width="100%" height="100%" transform="translate(377.22 8.832)"/><use xlink:href="#b" width="100%" height="100%" transform="translate(481.309 86.517)"/><use xlink:href="#c" width="100%" height="100%" transform="translate(-1181.676 267.145)"/><use xlink:href="#c" width="100%" height="100%" transform="translate(-949.183 64.37)"/><use xlink:href="#c" width="100%" height="100%" transform="translate(-600.047 -423.463)"/><use xlink:href="#c" width="100%" height="100%" transform="translate(-532.078 -483.632)"/><use xlink:href="#c" width="100%" height="100%" transform="translate(-476.753 -265.01)"/><use xlink:href="#c" width="100%" height="100%" transform="translate(-557.765 -377.115)"/><use xlink:href="#c" width="100%" height="100%" transform="translate(-558.8 -330.15)"/><use xlink:href="#c" width="100%" height="100%" transform="translate(-685.233 -71.837)"/><use xlink:href="#c" width="100%" height="100%" transform="translate(-758.34 17.57)"/><use xlink:href="#c" width="100%" height="100%" transform="translate(-900.707 242.396)"/><use xlink:href="#c" width="100%" height="100%" transform="translate(-1009.482 507.48)"/><use xlink:href="#c" width="100%" height="100%" transform="translate(-956.101 546.58)"/><use xlink:href="#c" width="100%" height="100%" transform="translate(-806.122 395.852)"/><use xlink:href="#c" width="100%" height="100%" transform="translate(-252.368 -36.078)"/><use xlink:href="#c" width="100%" height="100%" transform="translate(-109.984 44.263)"/><use xlink:href="#c" width="100%" height="100%" transform="translate(-124.88 -52.196)"/><use xlink:href="#c" width="100%" height="100%" transform="translate(-107.905 -136.84)"/><use xlink:href="#c" width="100%" height="100%" transform="translate(-28.467 -13.67)"/><use xlink:href="#c" width="100%" height="100%" transform="translate(-68.88 -24.546)"/><use xlink:href="#c" width="100%" height="100%" transform="translate(-52.166 4.521)"/><use xlink:href="#c" width="100%" height="100%" transform="translate(-99.256 232.55)"/><use xlink:href="#c" width="100%" height="100%" transform="translate(-121.154 300.844)"/><use xlink:href="#c" width="100%" height="100%" transform="translate(-222.892 570.936)"/><use xlink:href="#c" width="100%" height="100%" transform="translate(-523.466 809.47)"/><use xlink:href="#c" width="100%" height="100%" transform="translate(-496.567 707.784)"/><use xlink:href="#c" width="100%" height="100%" transform="translate(-450.229 776.465)"/><use xlink:href="#c" width="100%" height="100%" transform="translate(-345.042 665.935)"/><use xlink:href="#c" width="100%" height="100%" transform="translate(-343.827 630.967)"/><use xlink:href="#c" width="100%" height="100%" transform="translate(-204.991 475.929)"/><use xlink:href="#c" width="100%" height="100%" transform="translate(-152.62 332.787)"/><use xlink:href="#c" width="100%" height="100%" transform="translate(-5.273 91.493)"/><use xlink:href="#c" width="100%" height="100%" transform="translate(14.21 81.573)"/><use xlink:href="#c" width="100%" height="100%" transform="translate(-25.404 82.029)"/><use xlink:href="#c" width="100%" height="100%" transform="translate(-2.732 -6.42)"/><use xlink:href="#c" width="100%" height="100%" transform="translate(71.804 49.758)"/><use xlink:href="#c" width="100%" height="100%" transform="translate(51.36 21.926)"/><use xlink:href="#c" width="100%" height="100%" transform="translate(74.985 558.091)"/><use xlink:href="#c" width="100%" height="100%" transform="translate(34.281 708.556)"/><use xlink:href="#c" width="100%" height="100%" transform="translate(116.525 856.687)"/><use xlink:href="#c" width="100%" height="100%" transform="translate(9.5 777.922)"/><use xlink:href="#c" width="100%" height="100%" transform="translate(86.301 742.174)"/><use xlink:href="#c" width="100%" height="100%" transform="translate(98.271 719.557)"/><use xlink:href="#c" width="100%" height="100%" transform="translate(492.254 502.472)"/><use xlink:href="#c" width="100%" height="100%" transform="translate(531.075 299.673)"/><use xlink:href="#c" width="100%" height="100%" transform="translate(503.776 361.424)"/><use xlink:href="#c" width="100%" height="100%" transform="translate(549.646 337.206)"/><use xlink:href="#c" width="100%" height="100%" transform="translate(547.182 250.084)"/><use xlink:href="#c" width="100%" height="100%" transform="translate(654.911 306.141)"/><use xlink:href="#c" width="100%" height="100%" transform="translate(583.88 282.913)"/><use xlink:href="#c" width="100%" height="100%" transform="translate(692.688 139.127)"/><use xlink:href="#c" width="100%" height="100%" transform="translate(774.8 436.21)"/><use xlink:href="#c" width="100%" height="100%" transform="translate(559.887 726.012)"/><use xlink:href="#c" width="100%" height="100%" transform="translate(566.984 895.897)"/><use xlink:href="#c" width="100%" height="100%" transform="translate(530.46 874.282)"/><use xlink:href="#c" width="100%" height="100%" transform="translate(561.89 894.789)"/><use xlink:href="#c" width="100%" height="100%" transform="translate(784.017 519.075)"/><use xlink:href="#c" width="100%" height="100%" transform="translate(666.21 329.501)"/><use xlink:href="#c" width="100%" height="100%" transform="translate(456.455 -1.314)"/><use xlink:href="#c" width="100%" height="100%" transform="translate(464.17 -151.418)"/><use xlink:href="#c" width="100%" height="100%" transform="translate(324.49 -210.234)"/><use xlink:href="#c" width="100%" height="100%" transform="translate(338.066 -179.105)"/><use xlink:href="#c" width="100%" height="100%" transform="translate(136.002 -53.732)"/><use xlink:href="#c" width="100%" height="100%" transform="translate(58.953 -35.021)"/><use xlink:href="#c" width="100%" height="100%" transform="translate(-66.542 122.518)"/><use xlink:href="#c" width="100%" height="100%" transform="translate(-59.16 101.389)"/><use xlink:href="#c" width="100%" height="100%" transform="translate(-17.776 82.367)"/><use xlink:href="#c" width="100%" height="100%" transform="translate(-35.716 43.455)"/><use xlink:href="#c" width="100%" height="100%" transform="translate(189.079 -36.533)"/><use xlink:href="#c" width="100%" height="100%" transform="translate(188.977 -234.852)"/><use xlink:href="#c" width="100%" height="100%" transform="translate(260.095 -244.648)"/><use xlink:href="#c" width="100%" height="100%" transform="translate(-970.103 902.708)"/><use xlink:href="#c" width="100%" height="100%" transform="translate(-1030.55 962.316)"/><use xlink:href="#c" width="100%" height="100%" transform="translate(-803.474 714.012)"/><use xlink:href="#c" width="100%" height="100%" transform="translate(-800.163 630.513)"/><use xlink:href="#c" width="100%" height="100%" transform="translate(-717.566 565.215)"/><use xlink:href="#c" width="100%" height="100%" transform="translate(-493.316 482.76)"/><use xlink:href="#c" width="100%" height="100%" transform="translate(-423.463 250.836)"/><use xlink:href="#c" width="100%" height="100%" transform="translate(-252.486 99.608)"/><use xlink:href="#c" width="100%" height="100%" transform="translate(-248.394 167.76)"/><use xlink:href="#c" width="100%" height="100%" transform="translate(-576.293 23.261)"/><use xlink:href="#c" width="100%" height="100%" transform="translate(-612.02 208.643)"/><use xlink:href="#c" width="100%" height="100%" transform="translate(-524.48 263.077)"/><use xlink:href="#c" width="100%" height="100%" transform="translate(-589.383 585.242)"/><use xlink:href="#c" width="100%" height="100%" transform="translate(-645.468 529.88)"/><use xlink:href="#c" width="100%" height="100%" transform="translate(-652.528 610.338)"/><use xlink:href="#c" width="100%" height="100%" transform="translate(-616.469 561.977)"/><use xlink:href="#c" width="100%" height="100%" transform="translate(-704.799 658.109)"/><use xlink:href="#c" width="100%" height="100%" transform="translate(-572.953 708.76)"/><use xlink:href="#c" width="100%" height="100%" transform="translate(-561.276 720.634)"/><use xlink:href="#c" width="100%" height="100%" transform="translate(-622.52 706.65)"/><use xlink:href="#c" width="100%" height="100%" transform="translate(-844.393 614.644)"/><use xlink:href="#c" width="100%" height="100%" transform="translate(-808.55 425.696)"/><use xlink:href="#c" width="100%" height="100%" transform="translate(-695.64 418.75)"/><use xlink:href="#c" width="100%" height="100%" transform="translate(-479.459 492.876)"/><use xlink:href="#c" width="100%" height="100%" transform="translate(-346.626 551.812)"/><use xlink:href="#c" width="100%" height="100%" transform="translate(-180.751 405.176)"/><use xlink:href="#c" width="100%" height="100%" transform="translate(-195.618 429.906)"/><use xlink:href="#c" width="100%" height="100%" transform="translate(-43.257 290.635)"/><use xlink:href="#c" width="100%" height="100%" transform="translate(-36.11 280.52)"/><use xlink:href="#c" width="100%" height="100%" transform="translate(164.368 246.378)"/><use xlink:href="#c" width="100%" height="100%" transform="translate(253.07 114.763)"/><use xlink:href="#c" width="100%" height="100%" transform="translate(335.336 31.208)"/><use xlink:href="#c" width="100%" height="100%" transform="translate(405.465 -29.24)"/><use xlink:href="#c" width="100%" height="100%" transform="translate(408.207 -96.992)"/><use xlink:href="#c" width="100%" height="100%" transform="translate(479.57 -159.588)"/><use xlink:href="#c" width="100%" height="100%" transform="translate(609.475 66.513)"/><use xlink:href="#c" width="100%" height="100%" transform="translate(616.446 136.682)"/><use xlink:href="#c" width="100%" height="100%" transform="translate(661.662 212.454)"/><use xlink:href="#c" width="100%" height="100%" transform="translate(710.675 325.874)"/><use xlink:href="#c" width="100%" height="100%" transform="translate(626.008 210.201)"/><path id="e" d="M704.076 445.513l-.9.07-.452.782-.346-.834-.883-.19.687-.585-.093-.899.77.473.825-.367-.211.878z" opacity=".689" fill="#7280dc" stroke="#00edd2" stroke-opacity=".981" filter="url(#d)"/><use xlink:href="#e" width="100%" height="100%" transform="translate(-963.55 -8.513)"/><use xlink:href="#e" width="100%" height="100%" transform="translate(-1017.992 -73.085)"/><use xlink:href="#e" width="100%" height="100%" transform="translate(-967.387 -161.079)"/><use xlink:href="#e" width="100%" height="100%" transform="translate(-864.922 -133.828)"/><use xlink:href="#e" width="100%" height="100%" transform="translate(-786.677 -270.42)"/><use xlink:href="#e" width="100%" height="100%" transform="translate(-580.765 -488.755)"/><use xlink:href="#e" width="100%" height="100%" transform="translate(-454.82 -410.919)"/><use xlink:href="#e" width="100%" height="100%" transform="translate(-543.274 -304.471)"/><use xlink:href="#e" width="100%" height="100%" transform="translate(-510.962 -268.492)"/><use xlink:href="#e" width="100%" height="100%" transform="translate(-679.642 -258.665)"/><use xlink:href="#e" width="100%" height="100%" transform="translate(-872.381 16.592)"/><use xlink:href="#e" width="100%" height="100%" transform="translate(-704.657 22.924)"/><use xlink:href="#e" width="100%" height="100%" transform="translate(-508.934 -57.939)"/><use xlink:href="#e" width="100%" height="100%" transform="translate(-406.147 -72.459)"/><use xlink:href="#e" width="100%" height="100%" transform="translate(-262.135 -239.785)"/><use xlink:href="#e" width="100%" height="100%" transform="translate(-269.324 -211.915)"/><use xlink:href="#e" width="100%" height="100%" transform="translate(-217.103 -226.884)"/><use xlink:href="#e" width="100%" height="100%" transform="translate(-228.723 -260)"/><use xlink:href="#e" width="100%" height="100%" transform="translate(-173.751 -401.807)"/><use xlink:href="#e" width="100%" height="100%" transform="translate(-255.048 -390.906)"/><use xlink:href="#e" width="100%" height="100%" transform="translate(-290.563 -328.946)"/><use xlink:href="#e" width="100%" height="100%" transform="translate(-480.102 -81.366)"/><use xlink:href="#e" width="100%" height="100%" transform="translate(-570.554 -116.441)"/><use xlink:href="#e" width="100%" height="100%" transform="translate(-720.092 -35.347)"/><use xlink:href="#e" width="100%" height="100%" transform="translate(-854.088 65.278)"/><use xlink:href="#e" width="100%" height="100%" transform="translate(-796.372 -24.554)"/><use xlink:href="#e" width="100%" height="100%" transform="translate(-725.613 52.614)"/><use xlink:href="#e" width="100%" height="100%" transform="translate(-416.561 -112.83)"/><use xlink:href="#e" width="100%" height="100%" transform="translate(-1.295 -314.926)"/><use xlink:href="#e" width="100%" height="100%" transform="translate(-24.984 -257.957)"/><use xlink:href="#e" width="100%" height="100%" transform="translate(-93.784 -306.503)"/><use xlink:href="#e" width="100%" height="100%" transform="translate(-130.446 -403.896)"/><use xlink:href="#e" width="100%" height="100%" transform="translate(-91.713 -357.835)"/><use xlink:href="#e" width="100%" height="100%" transform="translate(-22.751 -87.022)"/><use xlink:href="#e" width="100%" height="100%" transform="translate(-78.419 -77.227)"/><use xlink:href="#e" width="100%" height="100%" transform="translate(-132.457 -6.934)"/><use xlink:href="#e" width="100%" height="100%" transform="translate(-104.627 124.198)"/><use xlink:href="#e" width="100%" height="100%" transform="translate(-268.194 94.648)"/><use xlink:href="#e" width="100%" height="100%" transform="translate(-167.986 116.893)"/><use xlink:href="#e" width="100%" height="100%" transform="translate(-151.798 83.5)"/><use xlink:href="#e" width="100%" height="100%" transform="translate(-80.981 51.49)"/><use xlink:href="#e" width="100%" height="100%" transform="translate(150.688 -157.585)"/><use xlink:href="#e" width="100%" height="100%" transform="translate(307.392 -189.568)"/><use xlink:href="#e" width="100%" height="100%" transform="translate(393.44 -196.166)"/><use xlink:href="#e" width="100%" height="100%" transform="translate(538.642 -333.002)"/><use xlink:href="#e" width="100%" height="100%" transform="translate(563.367 -312.453)"/><use xlink:href="#e" width="100%" height="100%" transform="translate(521.794 -193.991)"/><use xlink:href="#e" width="100%" height="100%" transform="translate(451.286 -210.836)"/><use xlink:href="#e" width="100%" height="100%" transform="translate(325.147 -162.638)"/><use xlink:href="#e" width="100%" height="100%" transform="translate(259.972 111.969)"/><use xlink:href="#e" width="100%" height="100%" transform="translate(100.15 187.282)"/><use xlink:href="#e" width="100%" height="100%" transform="translate(113.664 19.572)"/><use xlink:href="#e" width="100%" height="100%" transform="translate(284.264 -67.938)"/><use xlink:href="#e" width="100%" height="100%" transform="translate(304.206 -45.265)"/><use xlink:href="#e" width="100%" height="100%" transform="translate(401.276 -210.723)"/><use xlink:href="#e" width="100%" height="100%" transform="translate(458.373 -208.846)"/><use xlink:href="#e" width="100%" height="100%" transform="translate(475.435 58.209)"/><use xlink:href="#e" width="100%" height="100%" transform="translate(360.79 206.924)"/><use xlink:href="#e" width="100%" height="100%" transform="translate(331.375 163.996)"/><use xlink:href="#e" width="100%" height="100%" transform="translate(291.795 355.032)"/><use xlink:href="#e" width="100%" height="100%" transform="translate(255.9 338.553)"/><use xlink:href="#e" width="100%" height="100%" transform="translate(318.15 308.733)"/><use xlink:href="#e" width="100%" height="100%" transform="translate(467.167 59.672)"/><use xlink:href="#e" width="100%" height="100%" transform="translate(641.526 89.832)"/><use xlink:href="#e" width="100%" height="100%" transform="translate(687.147 80.114)"/><use xlink:href="#e" width="100%" height="100%" transform="translate(839.866 -72.188)"/><use xlink:href="#e" width="100%" height="100%" transform="translate(761.33 -135.698)"/><use xlink:href="#e" width="100%" height="100%" transform="translate(799.281 -50.013)"/><use xlink:href="#e" width="100%" height="100%" transform="translate(804.238 -120.187)"/><use xlink:href="#e" width="100%" height="100%" transform="translate(645.02 229.561)"/><use xlink:href="#e" width="100%" height="100%" transform="translate(550.64 523.305)"/><use xlink:href="#e" width="100%" height="100%" transform="translate(581.348 573.437)"/><use xlink:href="#e" width="100%" height="100%" transform="translate(609.604 474.416)"/><use xlink:href="#e" width="100%" height="100%" transform="translate(770.65 439.652)"/><use xlink:href="#e" width="100%" height="100%" transform="translate(772.682 300.908)"/><use xlink:href="#e" width="100%" height="100%" transform="translate(883.976 276.541)"/><use xlink:href="#e" width="100%" height="100%" transform="translate(1009.39 52.81)"/><use xlink:href="#e" width="100%" height="100%" transform="translate(1069.98 15.577)"/><use xlink:href="#e" width="100%" height="100%" transform="translate(1189.663 155.513)"/><use xlink:href="#e" width="100%" height="100%" transform="translate(1058.637 450.632)"/><use xlink:href="#e" width="100%" height="100%" transform="translate(1052.914 602.979)"/><use xlink:href="#e" width="100%" height="100%" transform="translate(1120.843 586.12)"/><use xlink:href="#e" width="100%" height="100%" transform="translate(1072.254 739.165)"/><use xlink:href="#e" width="100%" height="100%" transform="translate(1006.404 564.957)"/><use xlink:href="#e" width="100%" height="100%" transform="translate(1071.237 557.646)"/><use xlink:href="#e" width="100%" height="100%" transform="translate(1133.16 428.704)"/><use xlink:href="#e" width="100%" height="100%" transform="translate(1091.295 101.536)"/><use xlink:href="#e" width="100%" height="100%" transform="translate(1093.633 -52.573)"/><use xlink:href="#e" width="100%" height="100%" transform="translate(1104.517 -115.586)"/><use xlink:href="#e" width="100%" height="100%" transform="translate(1099.242 -320.578)"/><use xlink:href="#e" width="100%" height="100%" transform="translate(1155.702 -270.834)"/><use xlink:href="#e" width="100%" height="100%" transform="translate(1212.626 -346.49)"/><use xlink:href="#e" width="100%" height="100%" transform="translate(1025.285 -387.086)"/><use xlink:href="#e" width="100%" height="100%" transform="translate(1146.529 -396.402)"/><use xlink:href="#e" width="100%" height="100%" transform="translate(1008.128 -475.587)"/><use xlink:href="#e" width="100%" height="100%" transform="translate(1071.18 -398.397)"/><use xlink:href="#e" width="100%" height="100%" transform="translate(794.803 -137.98)"/><use xlink:href="#e" width="100%" height="100%" transform="translate(782.299 -132.07)"/><use xlink:href="#e" width="100%" height="100%" transform="translate(546.34 -107.192)"/><use xlink:href="#e" width="100%" height="100%" transform="translate(435.89 -233.224)"/><use xlink:href="#e" width="100%" height="100%" transform="translate(378.991 -262.562)"/><use xlink:href="#e" width="100%" height="100%" transform="translate(-217.46 -348.663)"/><use xlink:href="#e" width="100%" height="100%" transform="translate(-236.792 -485.174)"/><use xlink:href="#e" width="100%" height="100%" transform="translate(-352.94 -464.24)"/><use xlink:href="#e" width="100%" height="100%" transform="translate(-611.175 -521.61)"/><use xlink:href="#e" width="100%" height="100%" transform="translate(-658.832 -624.844)"/><use xlink:href="#e" width="100%" height="100%" transform="translate(-439.581 -525.058)"/><use xlink:href="#e" width="100%" height="100%" transform="translate(541.011 -247.83)"/><use xlink:href="#e" width="100%" height="100%" transform="translate(532.257 -345.237)"/><use xlink:href="#e" width="100%" height="100%" transform="translate(-82.169 -369.201)"/><use xlink:href="#e" width="100%" height="100%" transform="translate(-262.963 -451.893)"/><use xlink:href="#e" width="100%" height="100%" transform="translate(-396.53 -352.09)"/><use xlink:href="#e" width="100%" height="100%" transform="translate(-111.585 -362.054)"/><use xlink:href="#e" width="100%" height="100%" transform="translate(230.363 -332.902)"/><use xlink:href="#e" width="100%" height="100%" transform="translate(285.147 -419.792)"/><use xlink:href="#e" width="100%" height="100%" transform="translate(439.252 -393.112)"/><use xlink:href="#e" width="100%" height="100%" transform="translate(674.446 -394.738)"/><use xlink:href="#e" width="100%" height="100%" transform="translate(617.452 -342.085)"/><use xlink:href="#e" width="100%" height="100%" transform="translate(347.732 -310.83)"/><use xlink:href="#e" width="100%" height="100%" transform="translate(159.673 -312.587)"/><use xlink:href="#e" width="100%" height="100%" transform="translate(65.16 -342.172)"/><use xlink:href="#e" width="100%" height="100%" transform="translate(-150.875 -223.712)"/><use xlink:href="#e" width="100%" height="100%" transform="translate(-316.06 -308.01)"/><use xlink:href="#e" width="100%" height="100%" transform="translate(-389.673 -232.441)"/><use xlink:href="#e" width="100%" height="100%" transform="translate(-469.403 -286.358)"/><use xlink:href="#e" width="100%" height="100%" transform="translate(-459.986 -240.424)"/><use xlink:href="#e" width="100%" height="100%" transform="translate(66.112 -1.219)"/><use xlink:href="#e" width="100%" height="100%" transform="translate(251.628 62.96)"/><use xlink:href="#e" width="100%" height="100%" transform="translate(252.479 101.795)"/><use xlink:href="#e" width="100%" height="100%" transform="translate(221.598 243.42)"/><use xlink:href="#e" width="100%" height="100%" transform="translate(-72.339 420.537)"/><use xlink:href="#e" width="100%" height="100%" transform="translate(-203.799 418.127)"/><use xlink:href="#e" width="100%" height="100%" transform="translate(-127.456 454.348)"/><use xlink:href="#e" width="100%" height="100%" transform="translate(-159.034 477.388)"/><use xlink:href="#e" width="100%" height="100%" transform="translate(-7.321 569.843)"/><use xlink:href="#e" width="100%" height="100%" transform="translate(99.167 530.828)"/><use xlink:href="#e" width="100%" height="100%" transform="translate(202.46 451.277)"/><use xlink:href="#e" width="100%" height="100%" transform="translate(333.564 529.551)"/><use xlink:href="#e" width="100%" height="100%" transform="translate(643.316 339.453)"/><use xlink:href="#e" width="100%" height="100%" transform="translate(571.944 158.79)"/><use xlink:href="#e" width="100%" height="100%" transform="translate(510.203 60.41)"/><use xlink:href="#e" width="100%" height="100%" transform="translate(454.658 36.963)"/><use xlink:href="#e" width="100%" height="100%" transform="translate(432.464 -29.213)"/><use xlink:href="#e" width="100%" height="100%" transform="translate(205.656 -124.912)"/><use xlink:href="#e" width="100%" height="100%" transform="translate(163.723 -4.758)"/><use xlink:href="#e" width="100%" height="100%" transform="translate(-236.76 156.125)"/><use xlink:href="#e" width="100%" height="100%" transform="translate(-294.503 120.433)"/><use xlink:href="#e" width="100%" height="100%" transform="translate(-344.167 218.61)"/><use xlink:href="#e" width="100%" height="100%" transform="translate(-308.374 119.071)"/><use xlink:href="#e" width="100%" height="100%" transform="translate(-353.016 197.741)"/><use xlink:href="#e" width="100%" height="100%" transform="translate(-306.75 191.127)"/><use xlink:href="#e" width="100%" height="100%" transform="translate(-259.47 113.66)"/><use xlink:href="#e" width="100%" height="100%" transform="translate(-166.27 76.244)"/><use xlink:href="#e" width="100%" height="100%" transform="translate(64.903 90.836)"/><use xlink:href="#e" width="100%" height="100%" transform="translate(141.735 172.72)"/><use xlink:href="#e" width="100%" height="100%" transform="translate(301.265 335.652)"/><use xlink:href="#e" width="100%" height="100%" transform="translate(343.225 250.746)"/><use xlink:href="#e" width="100%" height="100%" transform="translate(359.858 285.86)"/><use xlink:href="#e" width="100%" height="100%" transform="translate(420.612 326.535)"/><use xlink:href="#e" width="100%" height="100%" transform="translate(511.736 293.179)"/><use xlink:href="#e" width="100%" height="100%" transform="translate(763.383 300.38)"/><use xlink:href="#e" width="100%" height="100%" transform="translate(739.304 258.905)"/><use xlink:href="#e" width="100%" height="100%" transform="translate(873.795 381.842)"/><use xlink:href="#e" width="100%" height="100%" transform="translate(970.246 427.59)"/><use xlink:href="#e" width="100%" height="100%" transform="translate(930.525 419.397)"/><use xlink:href="#e" width="100%" height="100%" transform="translate(1030.985 494.43)"/><use xlink:href="#e" width="100%" height="100%" transform="translate(931.273 471.937)"/><use xlink:href="#e" width="100%" height="100%" transform="translate(785.482 479.12)"/><use xlink:href="#e" width="100%" height="100%" transform="translate(845.771 476.161)"/><use xlink:href="#e" width="100%" height="100%" transform="translate(807.724 604.59)"/><use xlink:href="#e" width="100%" height="100%" transform="translate(806.27 488.336)"/><use xlink:href="#e" width="100%" height="100%" transform="translate(773.038 585.441)"/><use xlink:href="#e" width="100%" height="100%" transform="translate(724.004 373.544)"/><use xlink:href="#e" width="100%" height="100%" transform="translate(635.566 452.956)"/><use xlink:href="#e" width="100%" height="100%" transform="translate(534.267 330.095)"/><use xlink:href="#e" width="100%" height="100%" transform="translate(557.59 289.18)"/><use xlink:href="#e" width="100%" height="100%" transform="translate(279.275 164.124)"/><use xlink:href="#e" width="100%" height="100%" transform="translate(407.56 209.015)"/><use xlink:href="#e" width="100%" height="100%" transform="translate(351.21 264.54)"/><use xlink:href="#e" width="100%" height="100%" transform="translate(297.535 139.014)"/><use xlink:href="#e" width="100%" height="100%" transform="translate(-3.841 187.448)"/><use xlink:href="#e" width="100%" height="100%" transform="translate(-93.668 277.843)"/></g></svg>